<svg width="225" height="100" viewBox="0 0 555 221" fill="none" xmlns="http://www.w3.org/2000/svg">
  <g clip-path="url(#clip0_404_29502)">
    <g filter="url(#filter0_d_404_29502)">
      <g opacity="0.2">
        <rect x="52.0057" y="7.67052" width="63.9191" height="63.9191" rx="5.60116" fill="#212121"/>
        <rect x="52.0057" y="7.67052" width="63.9191" height="63.9191" rx="5.60116" stroke="url(#paint0_linear_404_29502)" stroke-width="0.65896"/>
        <path d="M84.3275 27.5215C83.3727 27.5215 82.5287 27.3905 81.7955 27.1284C81.0623 26.8694 80.4461 26.4872 79.9469 25.9818C79.4477 25.4763 79.0701 24.857 78.8143 24.1238C78.5584 23.3905 78.4305 22.5512 78.4305 21.6059C78.4305 20.6917 78.56 19.8742 78.819 19.1535C79.0811 18.4327 79.4601 17.8212 79.9562 17.3189C80.4554 16.8134 81.0607 16.4281 81.7721 16.1629C82.4866 15.8977 83.2947 15.7651 84.1964 15.7651C85.0732 15.7651 85.8407 15.9086 86.499 16.1957C87.1605 16.4796 87.7127 16.8649 88.1558 17.3516C88.602 17.8353 88.9358 18.3797 89.1573 18.985C89.382 19.5903 89.4943 20.2143 89.4943 20.857C89.4943 21.3095 89.4725 21.7681 89.4288 22.233C89.3851 22.6979 89.2931 23.1253 89.1526 23.5153C89.0122 23.9022 88.7954 24.2142 88.5021 24.4514C88.2119 24.6885 87.8188 24.8071 87.3227 24.8071C87.1043 24.8071 86.8641 24.7727 86.602 24.7041C86.3399 24.6355 86.1075 24.5216 85.9047 24.3624C85.7018 24.2033 85.5817 23.9896 85.5443 23.7213H85.4881C85.4132 23.9022 85.2978 24.0738 85.1418 24.2361C84.9889 24.3983 84.7877 24.5278 84.5381 24.6245C84.2916 24.7213 83.9905 24.7634 83.6348 24.7509C83.2292 24.7353 82.8719 24.6448 82.5631 24.4795C82.2542 24.311 81.9952 24.0832 81.7862 23.7962C81.5802 23.506 81.4242 23.1706 81.3181 22.7899C81.2152 22.4062 81.1637 21.9928 81.1637 21.5497C81.1637 21.1285 81.2261 20.7432 81.3509 20.3937C81.4757 20.0443 81.6489 19.7385 81.8704 19.4764C82.095 19.2143 82.3571 19.0053 82.6567 18.8493C82.9593 18.6902 83.2854 18.5919 83.6348 18.5544C83.9468 18.5232 84.2307 18.5373 84.4866 18.5966C84.7424 18.6527 84.953 18.7385 85.1184 18.854C85.2838 18.9663 85.3883 19.0911 85.432 19.2284H85.4881V18.7042H86.4803V22.935C86.4803 23.1971 86.5536 23.428 86.7003 23.6277C86.8469 23.8274 87.0606 23.9272 87.3414 23.9272C87.6597 23.9272 87.9031 23.818 88.0715 23.5996C88.2431 23.3812 88.3602 23.0442 88.4226 22.5887C88.4881 22.1332 88.5208 21.5497 88.5208 20.8383C88.5208 20.4202 88.4631 20.0084 88.3477 19.6028C88.2353 19.194 88.0637 18.8118 87.8329 18.4561C87.6051 18.1005 87.3165 17.7869 86.967 17.5154C86.6176 17.244 86.2073 17.0318 85.7362 16.879C85.2682 16.7229 84.7362 16.6449 84.1403 16.6449C83.407 16.6449 82.7503 16.7588 82.1699 16.9866C81.5927 17.2112 81.1013 17.5404 80.6957 17.9741C80.2932 18.4047 79.9859 18.9288 79.7737 19.5466C79.5647 20.1613 79.4601 20.8602 79.4601 21.6433C79.4601 22.4389 79.5647 23.1456 79.7737 23.7634C79.9859 24.3812 80.2979 24.9022 80.7097 25.3266C81.1247 25.7509 81.638 26.0722 82.2495 26.2907C82.861 26.5122 83.5662 26.6229 84.3649 26.6229C84.7081 26.6229 85.0466 26.5902 85.3805 26.5247C85.7143 26.4591 86.0092 26.3874 86.265 26.3094C86.5209 26.2314 86.705 26.1737 86.8173 26.1362L87.0794 26.9973C86.8859 27.0785 86.6332 27.1596 86.3212 27.2407C86.0123 27.3218 85.6816 27.3889 85.329 27.442C84.9796 27.495 84.6457 27.5215 84.3275 27.5215ZM83.7846 23.7962C84.2027 23.7962 84.5412 23.7119 84.8001 23.5434C85.0591 23.3749 85.2479 23.1207 85.3664 22.7806C85.485 22.4405 85.5443 22.0115 85.5443 21.4935C85.5443 20.9694 85.4788 20.5606 85.3477 20.2674C85.2167 19.9741 85.0232 19.7681 84.7674 19.6496C84.5115 19.531 84.1964 19.4717 83.822 19.4717C83.4663 19.4717 83.1621 19.5653 82.9094 19.7525C82.6598 19.9366 82.4679 20.1831 82.3337 20.492C82.2027 20.7978 82.1372 21.1316 82.1372 21.4935C82.1372 21.8929 82.1902 22.2689 82.2963 22.6214C82.4024 22.9709 82.5755 23.2548 82.8158 23.4732C83.056 23.6885 83.379 23.7962 83.7846 23.7962Z" fill="#888888"/>
        <path d="M79.1692 56.2659V54.918L84.2312 49.3767C84.8252 48.7278 85.3145 48.1637 85.6988 47.6844C86.0832 47.2002 86.3678 46.7459 86.5525 46.3216C86.7422 45.8922 86.837 45.443 86.837 44.9737C86.837 44.4346 86.7073 43.9678 86.4477 43.5734C86.1931 43.179 85.8436 42.8745 85.3993 42.6599C84.955 42.4452 84.4558 42.3379 83.9017 42.3379C83.3126 42.3379 82.7984 42.4602 82.3591 42.7048C81.9248 42.9444 81.5878 43.2814 81.3482 43.7157C81.1136 44.15 80.9963 44.6592 80.9963 45.2433H79.2291C79.2291 44.3447 79.4362 43.5559 79.8506 42.877C80.2649 42.1981 80.829 41.6689 81.5429 41.2895C82.2618 40.9101 83.068 40.7204 83.9616 40.7204C84.8602 40.7204 85.6564 40.9101 86.3503 41.2895C87.0442 41.6689 87.5884 42.1806 87.9827 42.8246C88.3771 43.4686 88.5743 44.1849 88.5743 44.9737C88.5743 45.5378 88.472 46.0894 88.2673 46.6286C88.0676 47.1627 87.7182 47.7593 87.2189 48.4183C86.7247 49.0722 86.0383 49.871 85.1597 50.8145L81.7151 54.4987V54.6185H88.8439V56.2659H79.1692Z" fill="#888888"/>
      </g>
      <rect x="123.173" y="7.67052" width="63.9191" height="63.9191" rx="5.60116" fill="#212121"/>
      <rect x="123.173" y="7.67052" width="63.9191" height="63.9191" rx="5.60116" stroke="url(#paint1_linear_404_29502)" stroke-width="0.65896"/>
      <path d="M155.562 24.9943L157.135 15.4094H158.071L156.498 24.9943H155.562ZM151.201 22.336L151.35 21.3999H158.502L158.352 22.336H151.201ZM152.193 24.9943L153.765 15.4094H154.701L153.129 24.9943H152.193ZM151.762 19.0037L151.912 18.0677H159.063L158.913 19.0037H151.762Z" fill="#888888"/>
      <path d="M155.189 56.4755C154.201 56.4755 153.32 56.3058 152.546 55.9663C151.777 55.6269 151.166 55.1551 150.711 54.5511C150.262 53.942 150.017 53.2357 149.977 52.4319H151.864C151.904 52.9261 152.074 53.353 152.374 53.7124C152.673 54.0668 153.065 54.3414 153.549 54.5361C154.034 54.7308 154.57 54.8281 155.159 54.8281C155.818 54.8281 156.402 54.7133 156.911 54.4837C157.421 54.254 157.82 53.9346 158.11 53.5252C158.399 53.1158 158.544 52.6416 158.544 52.1024C158.544 51.5383 158.404 51.0416 158.125 50.6123C157.845 50.178 157.436 49.8385 156.897 49.5939C156.357 49.3493 155.698 49.227 154.92 49.227H153.692V47.5796H154.92C155.529 47.5796 156.063 47.4698 156.522 47.2501C156.986 47.0305 157.348 46.7209 157.608 46.3216C157.872 45.9222 158.005 45.4529 158.005 44.9138C158.005 44.3946 157.89 43.9428 157.66 43.5584C157.431 43.174 157.106 42.8745 156.687 42.6599C156.273 42.4452 155.783 42.3379 155.219 42.3379C154.69 42.3379 154.191 42.4352 153.722 42.6299C153.257 42.8196 152.878 43.0967 152.583 43.4611C152.289 43.8205 152.129 44.2548 152.104 44.764H150.307C150.337 43.9603 150.579 43.2564 151.033 42.6524C151.488 42.0433 152.082 41.5691 152.815 41.2296C153.554 40.8901 154.366 40.7204 155.249 40.7204C156.198 40.7204 157.011 40.9126 157.69 41.297C158.369 41.6764 158.891 42.1781 159.255 42.8021C159.62 43.4261 159.802 44.1001 159.802 44.8239C159.802 45.6876 159.575 46.4239 159.121 47.0329C158.671 47.642 158.06 48.0638 157.286 48.2984V48.4183C158.254 48.578 159.011 48.9899 159.555 49.6538C160.099 50.3128 160.371 51.129 160.371 52.1024C160.371 52.9361 160.144 53.6849 159.69 54.3489C159.24 55.0079 158.626 55.527 157.848 55.9064C157.069 56.2858 156.183 56.4755 155.189 56.4755Z" fill="#888888"/>
      <rect x="194.341" y="7.67052" width="63.9191" height="63.9191" rx="5.60116" fill="#212121"/>
      <rect x="194.341" y="7.67052" width="63.9191" height="63.9191" rx="5.60116" stroke="url(#paint2_linear_404_29502)" stroke-width="0.65896"/>
      <path d="M225.917 26.1924V14.2113H226.685V26.1924H225.917ZM228.501 17.8056C228.445 17.3314 228.217 16.9632 227.817 16.7011C227.418 16.439 226.928 16.308 226.348 16.308C225.924 16.308 225.552 16.3766 225.234 16.5139C224.919 16.6512 224.672 16.84 224.495 17.0802C224.32 17.3204 224.233 17.5934 224.233 17.8992C224.233 18.1551 224.293 18.375 224.415 18.5591C224.54 18.7401 224.699 18.8914 224.892 19.0131C225.086 19.1316 225.289 19.2299 225.501 19.3079C225.713 19.3828 225.908 19.4437 226.086 19.4905L227.059 19.7525C227.309 19.8181 227.587 19.9085 227.892 20.024C228.201 20.1394 228.496 20.297 228.777 20.4967C229.061 20.6932 229.295 20.946 229.479 21.2549C229.663 21.5637 229.755 21.9428 229.755 22.3921C229.755 22.9101 229.619 23.3781 229.348 23.7962C229.08 24.2142 228.686 24.5465 228.168 24.793C227.654 25.0395 227.028 25.1627 226.292 25.1627C225.605 25.1627 225.011 25.052 224.509 24.8305C224.009 24.6089 223.616 24.3 223.329 23.9038C223.045 23.5075 222.885 23.0473 222.847 22.5232H224.045C224.077 22.8851 224.198 23.1846 224.41 23.4217C224.626 23.6558 224.897 23.8305 225.225 23.9459C225.555 24.0582 225.911 24.1144 226.292 24.1144C226.735 24.1144 227.133 24.0426 227.485 23.8991C227.838 23.7525 228.117 23.5497 228.323 23.2907C228.529 23.0286 228.632 22.7228 228.632 22.3734C228.632 22.0552 228.543 21.7962 228.365 21.5965C228.187 21.3968 227.953 21.2346 227.663 21.1098C227.373 20.985 227.059 20.8758 226.722 20.7822L225.543 20.4452C224.794 20.2299 224.201 19.9226 223.765 19.5232C223.328 19.1238 223.109 18.6012 223.109 17.9554C223.109 17.4187 223.254 16.9507 223.545 16.5513C223.838 16.1489 224.231 15.8368 224.724 15.6153C225.22 15.3907 225.774 15.2784 226.385 15.2784C227.003 15.2784 227.552 15.3891 228.033 15.6106C228.513 15.829 228.894 16.1286 229.175 16.5092C229.459 16.8899 229.608 17.322 229.624 17.8056H228.501Z" fill="#888888"/>
      <path d="M220.764 53.1208V51.5932L227.503 40.9301H228.612V43.2963H227.863L222.771 51.3536V51.4734H231.846V53.1208H220.764ZM227.983 56.2659V52.6566V51.9452V40.9301H229.75V56.2659H227.983Z" fill="#888888"/>
      <rect x="265.509" y="7.67052" width="63.9191" height="63.9191" rx="5.60116" fill="#212121"/>
      <rect x="265.509" y="7.67052" width="63.9191" height="63.9191" rx="5.60116" stroke="url(#paint3_linear_404_29502)" stroke-width="0.65896"/>
      <path d="M297.992 23.1971V22.6916C297.992 22.3422 298.064 22.0224 298.208 21.7322C298.354 21.4389 298.566 21.2049 298.844 21.0302C299.125 20.8524 299.465 20.7634 299.864 20.7634C300.27 20.7634 300.61 20.8524 300.885 21.0302C301.159 21.2049 301.367 21.4389 301.507 21.7322C301.647 22.0224 301.718 22.3422 301.718 22.6916V23.1971C301.718 23.5465 301.646 23.8679 301.502 24.1612C301.362 24.4514 301.153 24.6854 300.875 24.8632C300.601 25.0379 300.264 25.1253 299.864 25.1253C299.459 25.1253 299.117 25.0379 298.839 24.8632C298.562 24.6854 298.351 24.4514 298.208 24.1612C298.064 23.8679 297.992 23.5465 297.992 23.1971ZM298.947 22.6916V23.1971C298.947 23.4873 299.016 23.7478 299.153 23.9787C299.29 24.2064 299.527 24.3203 299.864 24.3203C300.192 24.3203 300.423 24.2064 300.557 23.9787C300.694 23.7478 300.763 23.4873 300.763 23.1971V22.6916C300.763 22.4015 300.697 22.1425 300.566 21.9148C300.435 21.6839 300.201 21.5684 299.864 21.5684C299.537 21.5684 299.301 21.6839 299.158 21.9148C299.017 22.1425 298.947 22.4015 298.947 22.6916ZM293.219 17.712V17.2066C293.219 16.8571 293.29 16.5373 293.434 16.2471C293.581 15.9539 293.793 15.7198 294.07 15.5451C294.351 15.3673 294.691 15.2784 295.091 15.2784C295.496 15.2784 295.836 15.3673 296.111 15.5451C296.385 15.7198 296.593 15.9539 296.733 16.2471C296.874 16.5373 296.944 16.8571 296.944 17.2066V17.712C296.944 18.0615 296.872 18.3828 296.729 18.6761C296.588 18.9663 296.379 19.2003 296.102 19.3781C295.827 19.5529 295.49 19.6402 295.091 19.6402C294.685 19.6402 294.343 19.5529 294.066 19.3781C293.788 19.2003 293.577 18.9663 293.434 18.6761C293.29 18.3828 293.219 18.0615 293.219 17.712ZM294.173 17.2066V17.712C294.173 18.0022 294.242 18.2627 294.379 18.4936C294.517 18.7214 294.754 18.8352 295.091 18.8352C295.418 18.8352 295.649 18.7214 295.783 18.4936C295.921 18.2627 295.989 18.0022 295.989 17.712V17.2066C295.989 16.9164 295.924 16.6574 295.793 16.4297C295.662 16.1988 295.428 16.0833 295.091 16.0833C294.763 16.0833 294.527 16.1988 294.384 16.4297C294.244 16.6574 294.173 16.9164 294.173 17.2066ZM293.574 24.9943L300.164 15.4094H301.231L294.641 24.9943H293.574Z" fill="#888888"/>
      <path d="M297.434 56.4755C296.555 56.4755 295.764 56.3008 295.06 55.9514C294.356 55.6019 293.792 55.1227 293.367 54.5136C292.943 53.9046 292.711 53.2107 292.671 52.4319H294.468C294.538 53.1258 294.853 53.6999 295.412 54.1542C295.976 54.6035 296.65 54.8281 297.434 54.8281C298.063 54.8281 298.622 54.6809 299.111 54.3863C299.605 54.0918 299.992 53.6874 300.272 53.1733C300.556 52.6541 300.698 52.0675 300.698 51.4135C300.698 50.7446 300.551 50.148 300.257 49.6239C299.967 49.0947 299.568 48.6779 299.058 48.3733C298.549 48.0688 297.968 47.9141 297.314 47.9091C296.844 47.9041 296.363 47.9765 295.868 48.1262C295.374 48.271 294.967 48.4582 294.648 48.6878L292.911 48.4782L293.839 40.9301H301.807V42.5775H295.397L294.858 47.1003H294.947C295.262 46.8507 295.656 46.6436 296.131 46.4788C296.605 46.3141 297.099 46.2317 297.613 46.2317C298.552 46.2317 299.388 46.4564 300.122 46.9056C300.861 47.3499 301.44 47.959 301.859 48.7328C302.283 49.5065 302.496 50.3901 302.496 51.3836C302.496 52.362 302.276 53.2357 301.837 54.0044C301.402 54.7682 300.803 55.3723 300.039 55.8166C299.276 56.2559 298.407 56.4755 297.434 56.4755Z" fill="#888888"/>
      <rect x="336.676" y="7.67052" width="63.9191" height="63.9191" rx="5.60116" fill="#212121"/>
      <rect x="336.676" y="7.67052" width="63.9191" height="63.9191" rx="5.60116" stroke="url(#paint4_linear_404_29502)" stroke-width="0.65896"/>
      <path d="M368.467 16.2331H368.804V16.7011H368.467V16.2331ZM366.071 19.7525L367.999 15.7089H369.272L371.201 19.7525H370.096L368.58 16.5139H368.692L367.194 19.7525H366.071Z" fill="#888888"/>
      <path d="M368.736 56.4755C368.107 56.4656 367.478 56.3457 366.849 56.1161C366.22 55.8865 365.646 55.4996 365.127 54.9554C364.608 54.4063 364.191 53.665 363.876 52.7314C363.562 51.7929 363.404 50.6148 363.404 49.197C363.404 47.8392 363.532 46.6361 363.786 45.5877C364.041 44.5344 364.41 43.6483 364.895 42.9294C365.379 42.2056 365.963 41.6564 366.647 41.282C367.336 40.9076 368.112 40.7204 368.976 40.7204C369.834 40.7204 370.598 40.8926 371.267 41.2371C371.941 41.5766 372.49 42.0508 372.914 42.6599C373.339 43.2689 373.613 43.9703 373.738 44.764H371.911C371.741 44.0751 371.412 43.5035 370.923 43.0492C370.433 42.595 369.784 42.3678 368.976 42.3678C367.788 42.3678 366.851 42.8845 366.168 43.9179C365.489 44.9512 365.147 46.4014 365.142 48.2685H365.262C365.541 47.8442 365.873 47.4822 366.257 47.1827C366.647 46.8782 367.076 46.6436 367.545 46.4788C368.015 46.3141 368.511 46.2317 369.036 46.2317C369.914 46.2317 370.718 46.4514 371.447 46.8907C372.176 47.325 372.76 47.9265 373.199 48.6953C373.638 49.4591 373.858 50.3352 373.858 51.3237C373.858 52.2722 373.646 53.1408 373.221 53.9296C372.797 54.7133 372.201 55.3373 371.432 55.8016C370.668 56.2609 369.769 56.4855 368.736 56.4755ZM368.736 54.8281C369.365 54.8281 369.929 54.6709 370.428 54.3564C370.933 54.0419 371.329 53.62 371.619 53.0909C371.914 52.5617 372.061 51.9726 372.061 51.3237C372.061 50.6897 371.918 50.1131 371.634 49.5939C371.354 49.0697 370.967 48.6529 370.473 48.3434C369.984 48.0339 369.425 47.8791 368.796 47.8791C368.322 47.8791 367.88 47.974 367.471 48.1637C367.061 48.3484 366.702 48.603 366.392 48.9275C366.088 49.2519 365.848 49.6239 365.673 50.0432C365.499 50.4575 365.411 50.8944 365.411 51.3536C365.411 51.9627 365.554 52.5318 365.838 53.0609C366.128 53.5901 366.522 54.0169 367.021 54.3414C367.525 54.6659 368.097 54.8281 368.736 54.8281Z" fill="#888888"/>
      <rect x="407.844" y="7.67052" width="63.9191" height="63.9191" rx="5.60116" fill="#212121"/>
      <rect x="407.844" y="7.67052" width="63.9191" height="63.9191" rx="5.60116" stroke="url(#paint5_linear_404_29502)" stroke-width="0.65896"/>
      <path d="M439.314 25.1253C438.683 25.1253 438.141 25.0099 437.685 24.779C437.229 24.5481 436.878 24.2314 436.632 23.8289C436.385 23.4264 436.262 22.9662 436.262 22.4483C436.262 22.0489 436.346 21.6948 436.515 21.3859C436.687 21.0739 436.922 20.7853 437.222 20.5201C437.524 20.2518 437.872 19.9834 438.265 19.7151L439.651 18.6855C439.922 18.5076 440.139 18.3173 440.301 18.1145C440.467 17.9117 440.549 17.6465 440.549 17.3189C440.549 17.0755 440.442 16.84 440.226 16.6122C440.014 16.3844 439.735 16.2705 439.389 16.2705C439.145 16.2705 438.93 16.3329 438.743 16.4577C438.559 16.5794 438.414 16.7354 438.307 16.9258C438.205 17.113 438.153 17.3064 438.153 17.5061C438.153 17.7307 438.214 17.9585 438.336 18.1894C438.46 18.4171 438.618 18.6512 438.808 18.8914C439.002 19.1285 439.201 19.3719 439.407 19.6215L443.807 24.9943H442.477L438.846 20.6137C438.509 20.2081 438.203 19.8399 437.928 19.5092C437.654 19.1784 437.435 18.8524 437.273 18.531C437.111 18.2097 437.03 17.8618 437.03 17.4874C437.03 17.0568 437.125 16.6793 437.315 16.3548C437.509 16.0272 437.779 15.7729 438.125 15.5919C438.474 15.4078 438.883 15.3158 439.351 15.3158C439.832 15.3158 440.245 15.4094 440.591 15.5966C440.938 15.7807 441.204 16.0256 441.392 16.3314C441.579 16.634 441.672 16.9632 441.672 17.3189C441.672 17.7775 441.559 18.1753 441.331 18.5123C441.103 18.8493 440.793 19.1628 440.399 19.453L438.49 20.8758C438.059 21.194 437.768 21.5029 437.615 21.8024C437.462 22.102 437.385 22.3172 437.385 22.4483C437.385 22.7478 437.463 23.0271 437.619 23.286C437.775 23.545 437.995 23.754 438.279 23.9132C438.563 24.0723 438.896 24.1518 439.276 24.1518C439.638 24.1518 439.991 24.0754 440.334 23.9225C440.677 23.7665 440.988 23.5419 441.265 23.2486C441.546 22.9553 441.768 22.6027 441.93 22.1909C442.095 21.779 442.178 21.3157 442.178 20.8009H443.245C443.245 21.4374 443.172 21.9569 443.025 22.3594C442.878 22.7619 442.713 23.077 442.529 23.3047C442.345 23.5325 442.197 23.7026 442.084 23.8149C442.047 23.8617 442.013 23.9085 441.981 23.9553C441.95 24.0021 441.916 24.0489 441.878 24.0957C441.57 24.442 441.179 24.701 440.708 24.8726C440.237 25.0411 439.772 25.1253 439.314 25.1253Z" fill="#888888"/>
      <path d="M435.847 56.2659L442.706 42.6973V42.5775H434.798V40.9301H444.623V42.6673L437.794 56.2659H435.847Z" fill="#888888"/>
    </g>
    <g filter="url(#filter1_d_404_29502)">
      <g opacity="0.2">
        <rect x="28.2833" y="78.6705" width="63.9191" height="63.9191" rx="5.60116" fill="#212121"/>
        <rect x="28.2833" y="78.6705" width="63.9191" height="63.9191" rx="5.60116" stroke="url(#paint6_linear_404_29502)" stroke-width="0.65896"/>
        <path d="M59.6401 112.838H61.6769L63.3842 115.084L63.8335 115.683L66.3795 119.068H64.3427L62.6653 116.821L62.246 116.252L59.6401 112.838ZM67.0085 109.962C67.0085 111.58 66.7164 112.977 66.1324 114.155C65.5483 115.334 64.7471 116.242 63.7287 116.881C62.7103 117.52 61.5471 117.84 60.2392 117.84C58.9312 117.84 57.7681 117.52 56.7497 116.881C55.7313 116.242 54.9301 115.334 54.346 114.155C53.7619 112.977 53.4699 111.58 53.4699 109.962C53.4699 108.345 53.7619 106.947 54.346 105.769C54.9301 104.591 55.7313 103.682 56.7497 103.043C57.7681 102.404 58.9312 102.085 60.2392 102.085C61.5471 102.085 62.7103 102.404 63.7287 103.043C64.7471 103.682 65.5483 104.591 66.1324 105.769C66.7164 106.947 67.0085 108.345 67.0085 109.962ZM65.2113 109.962C65.2113 108.634 64.9892 107.513 64.5449 106.6C64.1056 105.686 63.509 104.995 62.7552 104.526C62.0064 104.056 61.1677 103.822 60.2392 103.822C59.3106 103.822 58.4695 104.056 57.7157 104.526C56.9668 104.995 56.3703 105.686 55.926 106.6C55.4867 107.513 55.267 108.634 55.267 109.962C55.267 111.29 55.4867 112.411 55.926 113.324C56.3703 114.238 56.9668 114.929 57.7157 115.399C58.4695 115.868 59.3106 116.102 60.2392 116.102C61.1677 116.102 62.0064 115.868 62.7552 115.399C63.509 114.929 64.1056 114.238 64.5449 113.324C64.9892 112.411 65.2113 111.29 65.2113 109.962Z" fill="#888888"/>
      </g>
      <rect x="99.4508" y="78.6705" width="63.9191" height="63.9191" rx="5.60116" fill="#212121"/>
      <rect x="99.4508" y="78.6705" width="63.9191" height="63.9191" rx="5.60116" stroke="url(#paint7_linear_404_29502)" stroke-width="0.65896"/>
      <path d="M126.045 117.63L121.852 102.294H123.739L126.944 114.784H127.093L130.358 102.294H132.455L135.72 114.784H135.87L139.075 102.294H140.962L136.768 117.63H134.851L131.467 105.409H131.347L127.962 117.63H126.045Z" fill="#888888"/>
      <rect x="170.619" y="78.6705" width="63.9191" height="63.9191" rx="5.60116" fill="#212121"/>
      <rect x="170.619" y="78.6705" width="63.9191" height="63.9191" rx="5.60116" stroke="url(#paint8_linear_404_29502)" stroke-width="0.65896"/>
      <path d="M198.134 117.63V102.294H207.389V103.942H199.991V109.123H206.91V110.771H199.991V115.983H207.509V117.63H198.134Z" fill="#888888"/>
      <rect x="241.786" y="78.6705" width="63.9191" height="63.9191" rx="5.60116" fill="#212121"/>
      <rect x="241.786" y="78.6705" width="63.9191" height="63.9191" rx="5.60116" stroke="url(#paint9_linear_404_29502)" stroke-width="0.65896"/>
      <path d="M268.859 117.63V102.294H274.04C275.239 102.294 276.222 102.499 276.991 102.908C277.76 103.313 278.329 103.869 278.698 104.578C279.068 105.287 279.252 106.093 279.252 106.997C279.252 107.9 279.068 108.702 278.698 109.4C278.329 110.099 277.762 110.649 276.998 111.048C276.234 111.442 275.259 111.639 274.07 111.639H269.877V109.962H274.011C274.829 109.962 275.488 109.842 275.987 109.603C276.492 109.363 276.856 109.024 277.081 108.584C277.31 108.14 277.425 107.611 277.425 106.997C277.425 106.383 277.31 105.846 277.081 105.387C276.851 104.928 276.484 104.573 275.98 104.324C275.476 104.069 274.809 103.942 273.981 103.942H270.716V117.63H268.859ZM276.077 110.741L279.851 117.63H277.695L273.981 110.741H276.077Z" fill="#888888"/>
      <rect x="312.954" y="78.6705" width="63.9191" height="63.9191" rx="5.60116" fill="#212121"/>
      <rect x="312.954" y="78.6705" width="63.9191" height="63.9191" rx="5.60116" stroke="url(#paint10_linear_404_29502)" stroke-width="0.65896"/>
      <path d="M339.167 103.942V102.294H350.669V103.942H345.846V117.63H343.989V103.942H339.167Z" fill="#888888"/>
      <rect x="384.121" y="78.6705" width="63.9191" height="63.9191" rx="5.60116" fill="#212121"/>
      <rect x="384.121" y="78.6705" width="63.9191" height="63.9191" rx="5.60116" stroke="url(#paint11_linear_404_29502)" stroke-width="0.65896"/>
      <path d="M409.608 102.294H411.735L415.988 109.453H416.168L420.421 102.294H422.548L417.007 111.31V117.63H415.15V111.31L409.608 102.294Z" fill="#888888"/>
    </g>
    <g filter="url(#filter2_d_404_29502)">
      <g opacity="0.2">
        <rect x="44.0983" y="149.671" width="63.9191" height="63.9191" rx="5.60116" fill="#212121"/>
        <rect x="44.0983" y="149.671" width="63.9191" height="63.9191" rx="5.60116" stroke="url(#paint12_linear_404_29502)" stroke-width="0.65896"/>
        <path d="M71.4189 188.63H69.472L75.1031 173.294H77.0201L82.6512 188.63H80.7043L76.1215 175.72H76.0017L71.4189 188.63ZM72.1378 182.639H79.9854V184.287H72.1378V182.639Z" fill="#888888"/>
      </g>
      <rect x="115.266" y="149.671" width="63.9191" height="63.9191" rx="5.60116" fill="#212121"/>
      <rect x="115.266" y="149.671" width="63.9191" height="63.9191" rx="5.60116" stroke="url(#paint13_linear_404_29502)" stroke-width="0.65896"/>
      <path d="M150.746 177.128C150.656 176.369 150.292 175.78 149.653 175.361C149.014 174.942 148.23 174.732 147.301 174.732C146.622 174.732 146.028 174.842 145.519 175.061C145.015 175.281 144.621 175.583 144.336 175.967C144.057 176.352 143.917 176.789 143.917 177.278C143.917 177.687 144.014 178.039 144.209 178.334C144.408 178.623 144.663 178.865 144.973 179.06C145.282 179.25 145.607 179.407 145.946 179.532C146.286 179.652 146.598 179.749 146.882 179.824L148.44 180.243C148.839 180.348 149.283 180.493 149.773 180.678C150.267 180.862 150.738 181.114 151.188 181.434C151.642 181.748 152.016 182.153 152.311 182.647C152.606 183.141 152.753 183.748 152.753 184.467C152.753 185.295 152.536 186.044 152.101 186.713C151.672 187.382 151.043 187.914 150.214 188.308C149.391 188.702 148.39 188.9 147.212 188.9C146.113 188.9 145.162 188.722 144.359 188.368C143.56 188.013 142.931 187.519 142.472 186.885C142.017 186.251 141.76 185.515 141.7 184.676H143.617C143.667 185.255 143.862 185.735 144.201 186.114C144.546 186.488 144.98 186.768 145.504 186.953C146.033 187.132 146.603 187.222 147.212 187.222C147.92 187.222 148.557 187.107 149.121 186.878C149.685 186.643 150.132 186.319 150.461 185.904C150.791 185.485 150.956 184.996 150.956 184.437C150.956 183.927 150.813 183.513 150.529 183.194C150.244 182.874 149.87 182.615 149.406 182.415C148.941 182.215 148.44 182.04 147.9 181.891L146.013 181.351C144.815 181.007 143.867 180.515 143.168 179.876C142.469 179.237 142.12 178.401 142.12 177.368C142.12 176.509 142.352 175.76 142.816 175.121C143.285 174.477 143.914 173.978 144.703 173.624C145.497 173.264 146.383 173.085 147.361 173.085C148.35 173.085 149.228 173.262 149.997 173.616C150.766 173.966 151.375 174.445 151.824 175.054C152.279 175.663 152.518 176.354 152.543 177.128H150.746Z" fill="#888888"/>
      <rect x="186.433" y="149.671" width="63.9191" height="63.9191" rx="5.60116" fill="#212121"/>
      <rect x="186.433" y="149.671" width="63.9191" height="63.9191" rx="5.60116" stroke="url(#paint14_linear_404_29502)" stroke-width="0.65896"/>
      <path d="M217.405 188.63H212.672V173.294H217.614C219.102 173.294 220.375 173.601 221.433 174.215C222.492 174.824 223.303 175.7 223.867 176.844C224.431 177.982 224.713 179.345 224.713 180.932C224.713 182.53 224.429 183.905 223.859 185.058C223.29 186.206 222.462 187.09 221.373 187.709C220.285 188.323 218.962 188.63 217.405 188.63ZM214.529 186.983H217.285C218.553 186.983 219.604 186.738 220.437 186.249C221.271 185.76 221.893 185.063 222.302 184.16C222.711 183.256 222.916 182.18 222.916 180.932C222.916 179.694 222.714 178.628 222.309 177.735C221.905 176.836 221.301 176.147 220.497 175.668C219.694 175.184 218.693 174.942 217.494 174.942H214.529V186.983Z" fill="#888888"/>
      <rect x="257.601" y="149.671" width="63.9191" height="63.9191" rx="5.60116" fill="#212121"/>
      <rect x="257.601" y="149.671" width="63.9191" height="63.9191" rx="5.60116" stroke="url(#paint15_linear_404_29502)" stroke-width="0.65896"/>
      <path d="M285.23 188.63V173.294H294.425V174.942H287.087V180.123H293.736V181.771H287.087V188.63H285.23Z" fill="#888888"/>
      <rect x="328.769" y="149.671" width="63.9191" height="63.9191" rx="5.60116" fill="#212121"/>
      <rect x="328.769" y="149.671" width="63.9191" height="63.9191" rx="5.60116" stroke="url(#paint16_linear_404_29502)" stroke-width="0.65896"/>
      <path d="M365.233 178.087C365.069 177.582 364.851 177.131 364.582 176.731C364.317 176.327 364 175.982 363.631 175.698C363.266 175.413 362.852 175.196 362.388 175.046C361.924 174.897 361.414 174.822 360.86 174.822C359.952 174.822 359.125 175.056 358.382 175.526C357.638 175.995 357.046 176.686 356.607 177.6C356.168 178.513 355.948 179.634 355.948 180.962C355.948 182.29 356.17 183.411 356.614 184.324C357.059 185.238 357.66 185.929 358.419 186.399C359.178 186.868 360.032 187.102 360.98 187.102C361.859 187.102 362.632 186.915 363.301 186.541C363.975 186.161 364.5 185.627 364.874 184.938C365.253 184.244 365.443 183.428 365.443 182.49L366.012 182.61H361.399V180.962H367.24V182.61C367.24 183.873 366.971 184.971 366.431 185.904C365.897 186.838 365.158 187.562 364.215 188.076C363.276 188.585 362.198 188.84 360.98 188.84C359.622 188.84 358.429 188.52 357.401 187.881C356.377 187.242 355.579 186.334 355.004 185.155C354.435 183.977 354.151 182.58 354.151 180.962C354.151 179.749 354.313 178.658 354.638 177.69C354.967 176.716 355.431 175.888 356.03 175.204C356.629 174.52 357.338 173.996 358.157 173.631C358.976 173.267 359.877 173.085 360.86 173.085C361.669 173.085 362.423 173.207 363.122 173.451C363.826 173.691 364.452 174.033 365.001 174.477C365.555 174.917 366.017 175.443 366.387 176.057C366.756 176.666 367.011 177.343 367.15 178.087H365.233Z" fill="#888888"/>
      <rect x="399.936" y="149.671" width="63.9191" height="63.9191" rx="5.60116" fill="#212121"/>
      <rect x="399.936" y="149.671" width="63.9191" height="63.9191" rx="5.60116" stroke="url(#paint17_linear_404_29502)" stroke-width="0.65896"/>
      <path d="M425.948 188.63V173.294H427.805V180.123H435.983V173.294H437.84V188.63H435.983V181.771H427.805V188.63H425.948Z" fill="#888888"/>
    </g>
    <g clip-path="url(#clip1_404_29502)">
      <rect x="177" y="18" width="187" height="187" rx="93.5" fill="#0A0A0A"/>
      <g filter="url(#filter3_d_404_29502)">
        <rect x="139.002" y="-57.5416" width="105.077" height="105.077" rx="9.20776" fill="#212121"/>
        <rect x="139.002" y="-57.5416" width="105.077" height="105.077" rx="9.20776" stroke="url(#paint18_linear_404_29502)" stroke-width="1.08327"/>
        <path d="M191.633 23.6745C190.008 23.6745 188.56 23.3955 187.288 22.8374C186.024 22.2794 185.019 21.5039 184.272 20.5109C183.533 19.5097 183.131 18.3485 183.065 17.0272H186.168C186.233 17.8396 186.512 18.5413 187.005 19.1322C187.497 19.7148 188.141 20.1662 188.937 20.4863C189.733 20.8063 190.615 20.9663 191.584 20.9663C192.667 20.9663 193.627 20.7776 194.464 20.4001C195.301 20.0226 195.958 19.4974 196.434 18.8244C196.91 18.1515 197.148 17.3719 197.148 16.4856C197.148 15.5582 196.918 14.7417 196.459 14.0359C195.999 13.3219 195.326 12.7639 194.44 12.3618C193.553 11.9597 192.47 11.7586 191.19 11.7586H189.171V9.05043H191.19C192.191 9.05043 193.069 8.86988 193.824 8.50879C194.587 8.14771 195.182 7.6389 195.609 6.98237C196.044 6.32585 196.262 5.55443 196.262 4.66813C196.262 3.81464 196.073 3.07195 195.695 2.44005C195.318 1.80814 194.784 1.31575 194.095 0.962867C193.414 0.609985 192.61 0.433544 191.682 0.433544C190.812 0.433544 189.992 0.593572 189.22 0.913628C188.457 1.22548 187.833 1.68094 187.349 2.28002C186.865 2.87089 186.602 3.58486 186.561 4.42193H183.607C183.656 3.10067 184.054 1.94355 184.801 0.950556C185.548 -0.0506435 186.525 -0.830266 187.731 -1.38831C188.945 -1.94636 190.279 -2.22538 191.732 -2.22538C193.291 -2.22538 194.628 -1.90943 195.745 -1.27752C196.861 -0.653825 197.718 0.170934 198.317 1.19675C198.916 2.22257 199.216 3.33046 199.216 4.52041C199.216 5.94014 198.843 7.15061 198.096 8.15181C197.357 9.15301 196.352 9.84646 195.08 10.2322V10.4291C196.672 10.6917 197.915 11.3688 198.81 12.4603C199.704 13.5435 200.151 14.8853 200.151 16.4856C200.151 17.8561 199.778 19.087 199.031 20.1785C198.293 21.2618 197.283 22.1153 196.003 22.739C194.723 23.3627 193.266 23.6745 191.633 23.6745Z" fill="#888888"/>
        <rect x="255.995" y="-57.5416" width="105.077" height="105.077" rx="9.20776" fill="#212121"/>
        <rect x="255.995" y="-57.5416" width="105.077" height="105.077" rx="9.20776" stroke="url(#paint19_linear_404_29502)" stroke-width="1.08327"/>
        <path d="M299.432 18.1597V15.6485L310.511 -1.8807H312.332V2.0092H311.101L302.731 15.2546V15.4515H317.65V18.1597H299.432ZM311.298 23.3298V17.3965V16.2271V-1.8807H314.204V23.3298H311.298Z" fill="#888888"/>
      </g>
      <g filter="url(#filter4_d_404_29502)">
        <rect x="100.005" y="59.1754" width="105.077" height="105.077" rx="9.20776" fill="#212121"/>
        <rect x="100.005" y="59.1754" width="105.077" height="105.077" rx="9.20776" stroke="url(#paint20_linear_404_29502)" stroke-width="1.08327"/>
        <rect x="216.997" y="59.1754" width="105.077" height="105.077" rx="9.20776" fill="#212121"/>
        <rect x="216.997" y="59.1754" width="105.077" height="105.077" rx="9.20776" stroke="url(#paint21_linear_404_29502)" stroke-width="1.08327"/>
        <path d="M262.23 124.714V99.5032H277.445V102.211H265.283V110.73H276.657V113.438H265.283V122.006H277.642V124.714H262.23Z" fill="#888888"/>
        <rect x="333.99" y="59.1754" width="105.077" height="105.077" rx="9.20776" fill="#212121"/>
        <rect x="333.99" y="59.1754" width="105.077" height="105.077" rx="9.20776" stroke="url(#paint22_linear_404_29502)" stroke-width="1.08327"/>
      </g>
      <g filter="url(#filter5_d_404_29502)">
        <rect x="126.003" y="175.893" width="105.077" height="105.077" rx="9.20776" fill="#212121"/>
        <rect x="126.003" y="175.893" width="105.077" height="105.077" rx="9.20776" stroke="url(#paint23_linear_404_29502)" stroke-width="1.08327"/>
        <rect x="242.996" y="175.893" width="105.077" height="105.077" rx="9.20776" fill="#212121"/>
        <rect x="242.996" y="175.893" width="105.077" height="105.077" rx="9.20776" stroke="url(#paint24_linear_404_29502)" stroke-width="1.08327"/>
        <rect x="359.988" y="175.893" width="105.077" height="105.077" rx="9.20776" fill="#212121"/>
        <rect x="359.988" y="175.893" width="105.077" height="105.077" rx="9.20776" stroke="url(#paint25_linear_404_29502)" stroke-width="1.08327"/>
      </g>
      <g filter="url(#filter6_b_404_29502)">
        <circle cx="270.5" cy="111.5" r="93.5" fill="white" fill-opacity="0.04"/>
      </g>
      <rect x="216" y="56" width="110.428" height="110.428" rx="9.20231" fill="white"/>
      <g clip-path="url(#clip2_404_29502)">
        <path d="M295.938 105.513H298.836L289.612 116.921H286.676L295.938 105.513Z" fill="#0A0A0A"/>
        <path d="M290.721 110.67L286.742 105.513H289.896L291.457 107.78C291.939 108.479 291.882 109.341 291.311 109.995C291.117 110.218 290.918 110.445 290.721 110.671V110.67Z" fill="#0A0A0A"/>
        <path d="M294.782 111.751L298.771 116.921H295.616L294.046 114.641C293.564 113.943 293.621 113.081 294.191 112.429C294.386 112.205 294.585 111.977 294.782 111.751Z" fill="#0A0A0A"/>
        <path d="M299.569 116.921V105.513H304.953C305.964 105.513 306.805 105.642 307.476 105.9C308.147 106.158 308.649 106.51 308.982 106.956C309.314 107.403 309.481 107.907 309.481 108.469C309.481 108.934 309.372 109.33 309.156 109.659C308.939 109.989 308.646 110.256 308.276 110.46C307.906 110.664 307.492 110.812 307.034 110.904C307.034 110.904 308.014 111.155 308.47 111.382C308.924 111.609 309.298 111.927 309.59 112.335C309.882 112.743 310.028 113.236 310.028 113.813C310.028 114.39 309.854 114.935 309.505 115.402C309.157 115.869 308.63 116.239 307.924 116.512C307.218 116.786 306.328 116.922 305.255 116.922H299.57L299.569 116.921ZM302.11 110.367H304.633C305.067 110.367 305.459 110.301 305.81 110.168C306.161 110.036 306.439 109.848 306.643 109.605C306.847 109.363 306.949 109.076 306.949 108.744C306.949 108.306 306.758 107.942 306.375 107.653C305.992 107.365 305.43 107.221 304.69 107.221H302.111V110.368L302.11 110.367ZM302.11 115.198H304.84C305.762 115.198 306.429 115.053 306.84 114.762C307.251 114.471 307.457 114.101 307.457 113.652C307.457 113.31 307.353 113.004 307.146 112.733C306.939 112.463 306.646 112.249 306.266 112.09C305.886 111.932 305.439 111.853 304.924 111.853H302.11V115.199V115.198Z" fill="#0A0A0A"/>
        <path d="M309.903 107.234V105.504H319.038V107.234H315.732V116.912H313.219V107.234H309.903Z" fill="#0A0A0A"/>
        <path d="M239.274 116.921V105.513H245.053C246.107 105.513 247.017 105.667 247.783 105.976C248.548 106.285 249.14 106.724 249.557 107.293C249.974 107.862 250.183 108.534 250.183 109.31C250.183 110.086 249.971 110.773 249.548 111.324C249.124 111.875 248.52 112.295 247.736 112.583C246.952 112.872 246.026 113.016 244.959 113.016H241.297V110.841H244.328C244.836 110.841 245.265 110.788 245.613 110.68C245.962 110.573 246.225 110.406 246.404 110.179C246.582 109.952 246.672 109.663 246.672 109.31C246.672 108.958 246.583 108.666 246.404 108.434C246.225 108.202 245.962 108.028 245.613 107.913C245.265 107.798 244.833 107.741 244.319 107.741H242.653V116.922H239.274V116.921ZM246.718 116.56L243.538 111.707H247.162L250.664 116.921H247.458C247.148 116.921 246.864 116.782 246.719 116.56H246.718Z" fill="#0A0A0A"/>
        <path d="M254.84 105.513V116.241C254.84 116.617 254.466 116.921 254.004 116.921H251.461V105.513H254.84Z" fill="#0A0A0A"/>
        <path d="M273.704 116.921V105.513H283.484V107.757H277.084V110.061H282.976V112.251H277.084V114.677H283.475V116.921H273.705H273.704Z" fill="#0A0A0A"/>
        <path d="M237.85 107.4C237.433 106.806 236.841 106.343 236.076 106.011C235.31 105.679 234.401 105.513 233.346 105.513H227.566V109.836H229.258C230.19 109.836 230.945 109.222 230.945 108.464V107.741H232.611C233.126 107.741 233.557 107.812 233.905 107.952C234.254 108.092 234.517 108.292 234.696 108.549C234.875 108.807 234.965 109.115 234.965 109.472C234.965 109.829 234.875 110.122 234.696 110.383C234.517 110.643 234.254 110.846 233.905 110.992C233.557 111.137 233.129 111.21 232.621 111.21H229.275C228.331 111.21 227.566 111.832 227.566 112.6V116.921H230.945V113.384H233.251C234.318 113.384 235.244 113.222 236.028 112.898C236.813 112.573 237.417 112.118 237.84 111.531C238.264 110.944 238.475 110.258 238.475 109.471C238.475 108.685 238.267 107.995 237.849 107.4H237.85Z" fill="#0A0A0A"/>
        <path d="M263.725 111.644L260.634 105.513H256.437V116.921H259.741V109.885L263.214 116.845H264.169C265.172 116.845 265.86 116.023 265.492 115.265L263.725 111.644Z" fill="#0A0A0A"/>
        <path d="M267.92 105.513L264.956 111.378C264.788 111.71 264.788 112.08 264.956 112.412C265.392 113.276 265.934 114.363 266.237 114.973L268.805 109.907V116.921H272.127V105.513H267.921H267.92Z" fill="#0A0A0A"/>
        <path d="M225.079 112.591C226.013 112.591 226.769 111.976 226.769 111.217C226.769 110.458 226.013 109.842 225.079 109.842C224.146 109.842 223.39 110.458 223.39 111.217C223.39 111.976 224.146 112.591 225.079 112.591Z" fill="#0A0A0A"/>
      </g>
    </g>
    <rect x="175.5" y="16.5" width="190" height="190" rx="95" stroke="url(#paint26_linear_404_29502)" stroke-width="3"/>
  </g>
  <defs>
    <filter id="filter0_d_404_29502" x="-91.3179" y="6.6821" width="564.728" height="67.2138" filterUnits="userSpaceOnUse" color-interpolation-filters="sRGB">
      <feFlood flood-opacity="0" result="BackgroundImageFix"/>
      <feColorMatrix in="SourceAlpha" type="matrix" values="0 0 0 0 0 0 0 0 0 0 0 0 0 0 0 0 0 0 127 0" result="hardAlpha"/>
      <feOffset dy="0.65896"/>
      <feGaussianBlur stdDeviation="0.65896"/>
      <feComposite in2="hardAlpha" operator="out"/>
      <feColorMatrix type="matrix" values="0 0 0 0 0 0 0 0 0 0 0 0 0 0 0 0 0 0 0.1 0"/>
      <feBlend mode="normal" in2="BackgroundImageFix" result="effect1_dropShadow_404_29502"/>
      <feBlend mode="normal" in="SourceGraphic" in2="effect1_dropShadow_404_29502" result="shape"/>
    </filter>
    <filter id="filter1_d_404_29502" x="-91.3179" y="77.6821" width="541.006" height="67.2138" filterUnits="userSpaceOnUse" color-interpolation-filters="sRGB">
      <feFlood flood-opacity="0" result="BackgroundImageFix"/>
      <feColorMatrix in="SourceAlpha" type="matrix" values="0 0 0 0 0 0 0 0 0 0 0 0 0 0 0 0 0 0 127 0" result="hardAlpha"/>
      <feOffset dy="0.65896"/>
      <feGaussianBlur stdDeviation="0.65896"/>
      <feComposite in2="hardAlpha" operator="out"/>
      <feColorMatrix type="matrix" values="0 0 0 0 0 0 0 0 0 0 0 0 0 0 0 0 0 0 0.1 0"/>
      <feBlend mode="normal" in2="BackgroundImageFix" result="effect1_dropShadow_404_29502"/>
      <feBlend mode="normal" in="SourceGraphic" in2="effect1_dropShadow_404_29502" result="shape"/>
    </filter>
    <filter id="filter2_d_404_29502" x="-91.3179" y="148.682" width="635.636" height="67.2138" filterUnits="userSpaceOnUse" color-interpolation-filters="sRGB">
      <feFlood flood-opacity="0" result="BackgroundImageFix"/>
      <feColorMatrix in="SourceAlpha" type="matrix" values="0 0 0 0 0 0 0 0 0 0 0 0 0 0 0 0 0 0 127 0" result="hardAlpha"/>
      <feOffset dy="0.65896"/>
      <feGaussianBlur stdDeviation="0.65896"/>
      <feComposite in2="hardAlpha" operator="out"/>
      <feColorMatrix type="matrix" values="0 0 0 0 0 0 0 0 0 0 0 0 0 0 0 0 0 0 0.1 0"/>
      <feBlend mode="normal" in2="BackgroundImageFix" result="effect1_dropShadow_404_29502"/>
      <feBlend mode="normal" in="SourceGraphic" in2="effect1_dropShadow_404_29502" result="shape"/>
    </filter>
    <filter id="filter3_d_404_29502" x="-213.601" y="-59.1665" width="928.358" height="110.493" filterUnits="userSpaceOnUse" color-interpolation-filters="sRGB">
      <feFlood flood-opacity="0" result="BackgroundImageFix"/>
      <feColorMatrix in="SourceAlpha" type="matrix" values="0 0 0 0 0 0 0 0 0 0 0 0 0 0 0 0 0 0 127 0" result="hardAlpha"/>
      <feOffset dy="1.08327"/>
      <feGaussianBlur stdDeviation="1.08327"/>
      <feComposite in2="hardAlpha" operator="out"/>
      <feColorMatrix type="matrix" values="0 0 0 0 0 0 0 0 0 0 0 0 0 0 0 0 0 0 0.1 0"/>
      <feBlend mode="normal" in2="BackgroundImageFix" result="effect1_dropShadow_404_29502"/>
      <feBlend mode="normal" in="SourceGraphic" in2="effect1_dropShadow_404_29502" result="shape"/>
    </filter>
    <filter id="filter4_d_404_29502" x="-213.601" y="57.5505" width="889.361" height="110.493" filterUnits="userSpaceOnUse" color-interpolation-filters="sRGB">
      <feFlood flood-opacity="0" result="BackgroundImageFix"/>
      <feColorMatrix in="SourceAlpha" type="matrix" values="0 0 0 0 0 0 0 0 0 0 0 0 0 0 0 0 0 0 127 0" result="hardAlpha"/>
      <feOffset dy="1.08327"/>
      <feGaussianBlur stdDeviation="1.08327"/>
      <feComposite in2="hardAlpha" operator="out"/>
      <feColorMatrix type="matrix" values="0 0 0 0 0 0 0 0 0 0 0 0 0 0 0 0 0 0 0.1 0"/>
      <feBlend mode="normal" in2="BackgroundImageFix" result="effect1_dropShadow_404_29502"/>
      <feBlend mode="normal" in="SourceGraphic" in2="effect1_dropShadow_404_29502" result="shape"/>
    </filter>
    <filter id="filter5_d_404_29502" x="-213.601" y="174.268" width="1044.92" height="110.493" filterUnits="userSpaceOnUse" color-interpolation-filters="sRGB">
      <feFlood flood-opacity="0" result="BackgroundImageFix"/>
      <feColorMatrix in="SourceAlpha" type="matrix" values="0 0 0 0 0 0 0 0 0 0 0 0 0 0 0 0 0 0 127 0" result="hardAlpha"/>
      <feOffset dy="1.08327"/>
      <feGaussianBlur stdDeviation="1.08327"/>
      <feComposite in2="hardAlpha" operator="out"/>
      <feColorMatrix type="matrix" values="0 0 0 0 0 0 0 0 0 0 0 0 0 0 0 0 0 0 0.1 0"/>
      <feBlend mode="normal" in2="BackgroundImageFix" result="effect1_dropShadow_404_29502"/>
      <feBlend mode="normal" in="SourceGraphic" in2="effect1_dropShadow_404_29502" result="shape"/>
    </filter>
    <filter id="filter6_b_404_29502" x="175" y="16" width="191" height="191" filterUnits="userSpaceOnUse" color-interpolation-filters="sRGB">
      <feFlood flood-opacity="0" result="BackgroundImageFix"/>
      <feGaussianBlur in="BackgroundImageFix" stdDeviation="1"/>
      <feComposite in2="SourceAlpha" operator="in" result="effect1_backgroundBlur_404_29502"/>
      <feBlend mode="normal" in="SourceGraphic" in2="effect1_backgroundBlur_404_29502" result="shape"/>
    </filter>
    <linearGradient id="paint0_linear_404_29502" x1="113.395" y1="8" x2="50.3977" y2="62.3362" gradientUnits="userSpaceOnUse">
      <stop stop-color="#4B4B4B"/>
      <stop offset="1" stop-color="#0A0A0A"/>
    </linearGradient>
    <linearGradient id="paint1_linear_404_29502" x1="184.563" y1="8" x2="121.565" y2="62.3362" gradientUnits="userSpaceOnUse">
      <stop stop-color="#4B4B4B"/>
      <stop offset="1" stop-color="#0A0A0A"/>
    </linearGradient>
    <linearGradient id="paint2_linear_404_29502" x1="255.73" y1="8" x2="192.733" y2="62.3362" gradientUnits="userSpaceOnUse">
      <stop stop-color="#4B4B4B"/>
      <stop offset="1" stop-color="#0A0A0A"/>
    </linearGradient>
    <linearGradient id="paint3_linear_404_29502" x1="326.898" y1="8" x2="263.901" y2="62.3362" gradientUnits="userSpaceOnUse">
      <stop stop-color="#4B4B4B"/>
      <stop offset="1" stop-color="#0A0A0A"/>
    </linearGradient>
    <linearGradient id="paint4_linear_404_29502" x1="398.066" y1="8" x2="335.068" y2="62.3362" gradientUnits="userSpaceOnUse">
      <stop stop-color="#4B4B4B"/>
      <stop offset="1" stop-color="#0A0A0A"/>
    </linearGradient>
    <linearGradient id="paint5_linear_404_29502" x1="469.233" y1="8" x2="406.236" y2="62.3362" gradientUnits="userSpaceOnUse">
      <stop stop-color="#4B4B4B"/>
      <stop offset="1" stop-color="#0A0A0A"/>
    </linearGradient>
    <linearGradient id="paint6_linear_404_29502" x1="89.6726" y1="79" x2="26.6752" y2="133.336" gradientUnits="userSpaceOnUse">
      <stop stop-color="#4B4B4B"/>
      <stop offset="1" stop-color="#0A0A0A"/>
    </linearGradient>
    <linearGradient id="paint7_linear_404_29502" x1="160.84" y1="79" x2="97.8427" y2="133.336" gradientUnits="userSpaceOnUse">
      <stop stop-color="#4B4B4B"/>
      <stop offset="1" stop-color="#0A0A0A"/>
    </linearGradient>
    <linearGradient id="paint8_linear_404_29502" x1="232.008" y1="79" x2="169.01" y2="133.336" gradientUnits="userSpaceOnUse">
      <stop stop-color="#4B4B4B"/>
      <stop offset="1" stop-color="#0A0A0A"/>
    </linearGradient>
    <linearGradient id="paint9_linear_404_29502" x1="303.175" y1="79" x2="240.178" y2="133.336" gradientUnits="userSpaceOnUse">
      <stop stop-color="#4B4B4B"/>
      <stop offset="1" stop-color="#0A0A0A"/>
    </linearGradient>
    <linearGradient id="paint10_linear_404_29502" x1="374.343" y1="79" x2="311.346" y2="133.336" gradientUnits="userSpaceOnUse">
      <stop stop-color="#4B4B4B"/>
      <stop offset="1" stop-color="#0A0A0A"/>
    </linearGradient>
    <linearGradient id="paint11_linear_404_29502" x1="445.511" y1="79" x2="382.513" y2="133.336" gradientUnits="userSpaceOnUse">
      <stop stop-color="#4B4B4B"/>
      <stop offset="1" stop-color="#0A0A0A"/>
    </linearGradient>
    <linearGradient id="paint12_linear_404_29502" x1="105.487" y1="150" x2="42.4902" y2="204.336" gradientUnits="userSpaceOnUse">
      <stop stop-color="#4B4B4B"/>
      <stop offset="1" stop-color="#0A0A0A"/>
    </linearGradient>
    <linearGradient id="paint13_linear_404_29502" x1="176.655" y1="150" x2="113.658" y2="204.336" gradientUnits="userSpaceOnUse">
      <stop stop-color="#4B4B4B"/>
      <stop offset="1" stop-color="#0A0A0A"/>
    </linearGradient>
    <linearGradient id="paint14_linear_404_29502" x1="247.823" y1="150" x2="184.825" y2="204.336" gradientUnits="userSpaceOnUse">
      <stop stop-color="#4B4B4B"/>
      <stop offset="1" stop-color="#0A0A0A"/>
    </linearGradient>
    <linearGradient id="paint15_linear_404_29502" x1="318.99" y1="150" x2="255.993" y2="204.336" gradientUnits="userSpaceOnUse">
      <stop stop-color="#4B4B4B"/>
      <stop offset="1" stop-color="#0A0A0A"/>
    </linearGradient>
    <linearGradient id="paint16_linear_404_29502" x1="390.158" y1="150" x2="327.161" y2="204.336" gradientUnits="userSpaceOnUse">
      <stop stop-color="#4B4B4B"/>
      <stop offset="1" stop-color="#0A0A0A"/>
    </linearGradient>
    <linearGradient id="paint17_linear_404_29502" x1="461.326" y1="150" x2="398.328" y2="204.336" gradientUnits="userSpaceOnUse">
      <stop stop-color="#4B4B4B"/>
      <stop offset="1" stop-color="#0A0A0A"/>
    </linearGradient>
    <linearGradient id="paint18_linear_404_29502" x1="239.92" y1="-57" x2="136.359" y2="32.3234" gradientUnits="userSpaceOnUse">
      <stop stop-color="#4B4B4B"/>
      <stop offset="1" stop-color="#0A0A0A"/>
    </linearGradient>
    <linearGradient id="paint19_linear_404_29502" x1="356.913" y1="-57" x2="253.351" y2="32.3234" gradientUnits="userSpaceOnUse">
      <stop stop-color="#4B4B4B"/>
      <stop offset="1" stop-color="#0A0A0A"/>
    </linearGradient>
    <linearGradient id="paint20_linear_404_29502" x1="200.923" y1="59.717" x2="97.3613" y2="149.04" gradientUnits="userSpaceOnUse">
      <stop stop-color="#4B4B4B"/>
      <stop offset="1" stop-color="#0A0A0A"/>
    </linearGradient>
    <linearGradient id="paint21_linear_404_29502" x1="317.915" y1="59.717" x2="214.354" y2="149.04" gradientUnits="userSpaceOnUse">
      <stop stop-color="#4B4B4B"/>
      <stop offset="1" stop-color="#0A0A0A"/>
    </linearGradient>
    <linearGradient id="paint22_linear_404_29502" x1="434.908" y1="59.717" x2="331.346" y2="149.04" gradientUnits="userSpaceOnUse">
      <stop stop-color="#4B4B4B"/>
      <stop offset="1" stop-color="#0A0A0A"/>
    </linearGradient>
    <linearGradient id="paint23_linear_404_29502" x1="226.921" y1="176.434" x2="123.36" y2="265.758" gradientUnits="userSpaceOnUse">
      <stop stop-color="#4B4B4B"/>
      <stop offset="1" stop-color="#0A0A0A"/>
    </linearGradient>
    <linearGradient id="paint24_linear_404_29502" x1="343.914" y1="176.434" x2="240.352" y2="265.758" gradientUnits="userSpaceOnUse">
      <stop stop-color="#4B4B4B"/>
      <stop offset="1" stop-color="#0A0A0A"/>
    </linearGradient>
    <linearGradient id="paint25_linear_404_29502" x1="460.906" y1="176.434" x2="357.345" y2="265.758" gradientUnits="userSpaceOnUse">
      <stop stop-color="#4B4B4B"/>
      <stop offset="1" stop-color="#0A0A0A"/>
    </linearGradient>
    <linearGradient id="paint26_linear_404_29502" x1="357.496" y1="18" x2="171.273" y2="178.62" gradientUnits="userSpaceOnUse">
      <stop stop-color="#4B4B4B"/>
      <stop offset="1" stop-color="#0A0A0A"/>
    </linearGradient>
    <clipPath id="clip0_404_29502">
      <rect width="555" height="221" fill="white"/>
    </clipPath>
    <clipPath id="clip1_404_29502">
      <rect x="177" y="18" width="187" height="187" rx="93.5" fill="white"/>
    </clipPath>
    <clipPath id="clip2_404_29502">
      <rect width="95.6483" height="11.4207" fill="white" transform="translate(223.39 105.504)"/>
    </clipPath>
  </defs>
</svg>
