<svg width="100" height="100" viewBox="0 0 100 100" fill="none" xmlns="http://www.w3.org/2000/svg">
<g id="insurance">
<g id="Group">
<path id="Vector" d="M48.34 34.54C48.34 31.09 40.65 28.31 31.18 28.31C21.71 28.31 13.95 31.09 13.95 34.54" stroke="#2563EB" stroke-miterlimit="10" stroke-linecap="square"/>
<path id="Vector_2" d="M13.94 65.16V34.54C13.94 37.99 21.63 40.77 31.12 40.77C40.61 40.77 48.29 38 48.29 34.54V50.1" stroke="#2563EB" stroke-miterlimit="10" stroke-linecap="square"/>
<path id="Vector_3" d="M13.94 41.82C13.94 45.28 21.63 48.05 31.12 48.05C34.36 48.07 37.6 47.71 40.75 46.97" stroke="#2563EB" stroke-miterlimit="10" stroke-linecap="square"/>
<path id="Vector_4" d="M13.94 49.58C13.94 53.03 21.63 55.81 31.12 55.81C34.36 55.83 37.6 55.47 40.75 54.73" stroke="#2563EB" stroke-miterlimit="10" stroke-linecap="square"/>
<path id="Vector_5" d="M13.94 57.42C13.94 60.87 21.63 63.64 31.12 63.64C34.36 63.66 37.6 63.3 40.75 62.56" stroke="#2563EB" stroke-miterlimit="10" stroke-linecap="square"/>
<path id="Vector_6" d="M13.94 65.17C13.94 68.62 21.63 71.39 31.12 71.39C34.36 71.41 37.6 71.05 40.75 70.31" stroke="#2563EB" stroke-miterlimit="10" stroke-linecap="square"/>
<path id="Vector_7" d="M43 18.19C43 14.78 50.69 12.01 60.18 12.01C69.67 12.01 77.34 14.82 77.34 18.19" stroke="#2563EB" stroke-miterlimit="10" stroke-linecap="square"/>
<path id="Vector_8" d="M77.39 25.62C77.39 29.02 69.7 31.79 60.21 31.79C57.77 31.78 55.34 31.58 52.94 31.18" stroke="#2563EB" stroke-miterlimit="10" stroke-linecap="square"/>
<path id="Vector_9" d="M77.39 32.94C77.39 36.34 65.77 40.38 54.09 38.7" stroke="#2563EB" stroke-miterlimit="10" stroke-linecap="square"/>
<path id="Vector_10" d="M77.39 46.08V18.19C77.39 21.59 69.7 24.36 60.21 24.36C50.72 24.36 43.05 21.63 43.05 18.19V25.52" stroke="#2563EB" stroke-miterlimit="10" stroke-linecap="square"/>
<path id="Vector_11" d="M65.17 87.99C76.7073 87.99 86.06 78.6372 86.06 67.1C86.06 55.5628 76.7073 46.21 65.17 46.21C53.6328 46.21 44.28 55.5628 44.28 67.1C44.28 78.6372 53.6328 87.99 65.17 87.99Z" stroke="#2563EB" stroke-miterlimit="10" stroke-linecap="square"/>
<path id="Vector_12" d="M57.03 75.24L73.45 58.82" stroke="#2563EB" stroke-miterlimit="10" stroke-linecap="square"/>
<path id="Vector_13" d="M73.31 75.24L56.89 58.82" stroke="#2563EB" stroke-miterlimit="10" stroke-linecap="square"/>
</g>
</g>
</svg>
