<svg width="100" height="100" viewBox="0 0 100 100" fill="none" xmlns="http://www.w3.org/2000/svg">
<path d="M21.93 35.05L17.09 50.13C16.94 50.59 17.32 51.05 17.79 50.99C21.44 50.51 34.21 49.28 46.69 53.79C58.86 58.18 66.71 64.7 69.03 67.02C69.38 67.37 69.77 67.68 69.92 67.22L74.86 51.82C75.02 51.32 74.95 50.78 74.67 50.35C72.97 47.71 66.13 38.41 51.54 33.67C31.99 27.32 24.03 32.92 22.39 34.37C22.17 34.54 22.02 34.78 21.93 35.05Z" stroke="#007aff" stroke-miterlimit="10" stroke-linecap="square"/>
<path d="M21 36.23L5.68002 23.89C4.38002 22.84 5.05002 20.69 6.69002 20.62L52.58 18.71C54.68 18.62 56.75 19.3 58.42 20.63L94.27 49.1C95.62 50.17 94.98 52.39 93.29 52.52L91.55 52.65L74.17 54" stroke="#007aff" stroke-miterlimit="10" stroke-linecap="square"/>
<path d="M86.63 64.48L88.61 53.2" stroke="#007aff" stroke-miterlimit="10" stroke-linecap="square"/>
<path d="M89.3801 68.1C89.6201 66.34 88.3801 64.72 86.6201 64.48C84.8601 64.24 83.2401 65.48 83.0001 67.24C82.7601 69 84.0001 70.62 85.7601 70.86C87.5301 71.09 89.1501 69.86 89.3801 68.1Z" stroke="#007aff" stroke-miterlimit="10" stroke-linecap="square"/>
<path d="M84.96 70.84L82.23 79.34C82.01 80.02 82.46 80.73 83.16 80.83L86.53 81.29C87.22 81.38 87.84 80.82 87.8 80.12L87.41 71.19" stroke="#007aff" stroke-miterlimit="10" stroke-linecap="square"/>
<path d="M17.0701 50.78C16.8101 53.61 24.5301 61.74 39.6801 66.91C53.2701 71.55 67.1301 70.62 69.8801 67.16" stroke="#007aff" stroke-miterlimit="10" stroke-linecap="square"/>
</svg>
