<svg width="100" height="100" viewBox="0 0 100 100" fill="none" xmlns="http://www.w3.org/2000/svg">
<g id="multi-asset-platform">
<path id="Vector" d="M54.77 85.39C57.6308 85.39 59.95 83.0843 59.95 80.24C59.95 77.3957 57.6308 75.09 54.77 75.09C51.9091 75.09 49.59 77.3957 49.59 80.24C49.59 83.0843 51.9091 85.39 54.77 85.39Z" stroke="#007aff" stroke-miterlimit="10"/>
<path id="Vector_2" d="M87.34 70.67C90.2009 70.67 92.52 68.3643 92.52 65.52C92.52 62.6757 90.2009 60.37 87.34 60.37C84.4792 60.37 82.16 62.6757 82.16 65.52C82.16 68.3643 84.4792 70.67 87.34 70.67Z" stroke="#007aff" stroke-miterlimit="10"/>
<path id="Vector_3" d="M84.38 25.05C87.2408 25.05 89.56 22.7443 89.56 19.9C89.56 17.0557 87.2408 14.75 84.38 14.75C81.5191 14.75 79.2 17.0557 79.2 19.9C79.2 22.7443 81.5191 25.05 84.38 25.05Z" stroke="#007aff" stroke-miterlimit="10"/>
<path id="Vector_4" d="M42.93 17.69C45.7908 17.69 48.11 15.3843 48.11 12.54C48.11 9.69575 45.7908 7.39001 42.93 7.39001C40.0692 7.39001 37.75 9.69575 37.75 12.54C37.75 15.3843 40.0692 17.69 42.93 17.69Z" stroke="#007aff" stroke-miterlimit="10"/>
<path id="Vector_5" d="M20.72 45.65C23.5809 45.65 25.9 43.3443 25.9 40.5C25.9 37.6557 23.5809 35.35 20.72 35.35C17.8592 35.35 15.54 37.6557 15.54 40.5C15.54 43.3443 17.8592 45.65 20.72 45.65Z" stroke="#007aff" stroke-miterlimit="10"/>
<path id="Vector_6" d="M13.32 85.39C16.1808 85.39 18.5 83.0843 18.5 80.24C18.5 77.3957 16.1808 75.09 13.32 75.09C10.4592 75.09 8.14001 77.3957 8.14001 80.24C8.14001 83.0843 10.4592 85.39 13.32 85.39Z" stroke="#007aff" stroke-miterlimit="10"/>
<path id="Vector_7" d="M45.15 58.89C50.8717 58.89 55.51 54.2785 55.51 48.59C55.51 42.9015 50.8717 38.29 45.15 38.29C39.4284 38.29 34.79 42.9015 34.79 48.59C34.79 54.2785 39.4284 58.89 45.15 58.89Z" stroke="#007aff" stroke-miterlimit="10"/>
<path id="Vector_8" d="M45.1501 38.29L42.9301 17.69" stroke="#007aff" stroke-miterlimit="10" stroke-linecap="square"/>
<path id="Vector_9" d="M54.03 75.08L48.85 58.16" stroke="#007aff" stroke-miterlimit="10" stroke-linecap="square"/>
<path id="Vector_10" d="M53.29 41.97L79.94 22.84" stroke="#007aff" stroke-miterlimit="10" stroke-linecap="square"/>
<path id="Vector_11" d="M16.28 75.82L37.74 55.95" stroke="#007aff" stroke-miterlimit="10" stroke-linecap="square"/>
<path id="Vector_12" d="M25.9 41.97L34.04 44.91" stroke="#007aff" stroke-miterlimit="10" stroke-linecap="square"/>
<path id="Vector_13" d="M55.51 52.27L82.16 64.05" stroke="#007aff" stroke-miterlimit="10" stroke-linecap="square"/>
</g>
</svg>
