<svg width="100" height="100" viewBox="0 0 100 100" fill="none" xmlns="http://www.w3.org/2000/svg">
<path d="M79.14 51.75L57.78 50.73" stroke="#007aff" stroke-miterlimit="10" stroke-linecap="square"/>
<path d="M45.38 88.27C46.49 89.18 56.15 89.32 63.39 89.15C66.22 89.08 68.68 87.17 69.43 84.44L78.98 53.26" stroke="#007aff" stroke-miterlimit="10" stroke-linecap="square"/>
<path d="M21.07 64.34C21.07 64.34 28.21 41.23 30.62 32.69C31.18 30.69 32.56 30.19 34.27 31.38L56 48.05C57.53 49.11 58.22 51.03 57.72 52.82L48.05 86.62C47.63 88.12 45.85 88.76 44.57 87.86L23.31 70.62C21.31 69.21 20.41 66.69 21.07 64.34Z" stroke="#007aff" stroke-miterlimit="10" stroke-linecap="square"/>
<path d="M70.14 43.38L76.98 48.83C78.66 50 79.52 51.31 78.98 53.27" stroke="#007aff" stroke-miterlimit="10" stroke-linecap="square"/>
<path d="M54.42 31.64L58.36 34.64" stroke="#007aff" stroke-miterlimit="10" stroke-linecap="square"/>
<path d="M32.32 30.71L41.46 30.44" stroke="#007aff" stroke-miterlimit="10" stroke-linecap="square"/>
<path d="M49.78 35.3C50.33 34.97 50.83 34.51 50.96 33.85C51.78 29.65 55.17 19.01 60.05 21C66.75 23.73 59.91 39 58.56 43.01C58.34 43.66 58.59 44.73 58.95 45.26C60.3 47.28 63.05 48.44 65.58 47.57C66.06 47.41 66.74 46.79 66.91 46.28C68.5 41.63 78.98 18 64.85 11.88C51.01 5.89001 44.63 25.97 43.45 32.07C43.26 33.06 43.8 33.87 44.51 34.5C46.02 35.85 48.3 36.19 49.78 35.3Z" stroke="#007aff" stroke-miterlimit="10" stroke-linecap="square"/>
<path d="M36 58.8C35.68 58.21 34.63 56.4 35.21 54.62C35.8 52.81 37.36 51.75 38.87 51.78C40.82 51.82 42.16 52.83 42.64 54.81C43.27 57.43 41.69 60.16 39.36 60.64C39.36 60.64 39 65.73 39.02 66.36C39.06 67.56 38.24 69.34 36.75 68.61L33.1 65.91C32.08 65.33 32.19 64.46 32.67 63.47C33.14 62.49 36 58.8 36 58.8Z" stroke="#007aff" stroke-miterlimit="10" stroke-linecap="square"/>
</svg>
