<svg width="100" height="100" viewBox="0 0 100 100" fill="none" xmlns="http://www.w3.org/2000/svg">
<g id="social-trading">
<g id="Group">
<path id="Vector" d="M74.74 87.81C82.7316 87.81 89.21 81.3808 89.21 73.45C89.21 65.5192 82.7316 59.09 74.74 59.09C66.7485 59.09 60.27 65.5192 60.27 73.45C60.27 81.3808 66.7485 87.81 74.74 87.81Z" stroke="#007aff" stroke-miterlimit="10" stroke-linecap="square"/>
<path id="Vector_2" d="M25.5101 38.42C25.5101 38.42 22.8201 37.83 22.8201 40.7C22.8201 43.57 25.5101 43.38 25.5101 43.38" stroke="#007aff" stroke-miterlimit="10" stroke-linecap="square"/>
<path id="Vector_3" d="M29.35 54.5C27.15 54.7 21.85 57.29 19.37 63.91C18.91 65.13 18.56 66.49 18.29 67.93" stroke="#007aff" stroke-miterlimit="10" stroke-linecap="square"/>
<path id="Vector_4" d="M44.7001 54.71C44.7001 54.71 52.8101 56.98 55.2101 65.5C56.8401 71.3 56.1101 89.38 56.1101 89.38" stroke="#007aff" stroke-miterlimit="10" stroke-linecap="square"/>
<path id="Vector_5" d="M49.3201 75V90.15" stroke="#007aff" stroke-miterlimit="10" stroke-linecap="square"/>
<path id="Vector_6" d="M24.16 75V78.21" stroke="#007aff" stroke-miterlimit="10" stroke-linecap="square"/>
<path id="Vector_7" d="M31.7301 56.16C31.7301 56.16 34.5901 63.01 37.3001 63.01C39.9001 63.01 42.8701 56.16 42.8701 56.16" stroke="#007aff" stroke-miterlimit="10" stroke-linecap="square"/>
<path id="Vector_8" d="M47.91 50.03C46.63 53.18 43.24 57.05 37.5201 57.05C30.0301 57.05 25.84 51.6 25.84 47.54V31.4C25.84 30.81 26.2401 28.91 27.5401 27.01C27.5401 27.01 28.9801 32.16 33.7701 34.6C38.5601 37.04 44.5501 37.28 46.9501 40.21C49.3501 43.14 46.35 51.94 49.35 55.1C52.34 58.26 59.53 57.15 60.43 55.27C61.33 53.38 55.64 52.82 57.14 49.81C58.64 46.8 59.84 40.71 57.44 38.02C55.04 35.34 52.95 34.12 52.35 31.19C51.75 28.26 47.26 20.95 40.07 19C32.88 17.05 21.8 24.85 22.1 33.88C22.09 37.9 14.31 36.54 14.61 43.02C14.91 49.49 18.75 51.13 16.96 52.83C15.16 54.53 10.8 54.43 10.8 55.82C10.8 57.2 13.42 61.65 20.6 60.82" stroke="#007aff" stroke-miterlimit="10" stroke-linecap="square"/>
<path id="Vector_9" d="M53.41 61.44C53.41 61.44 59.59 59.09 60.42 55.26" stroke="#007aff" stroke-miterlimit="10" stroke-linecap="square"/>
<path id="Vector_10" d="M71.88 42.16C76.83 43.21 80.44 46.97 82.33 51.48" stroke="#007aff" stroke-miterlimit="10" stroke-linecap="square"/>
<path id="Vector_11" d="M53.49 33.64V18.73C53.49 17.44 55.39 9.82001 64.57 9.82001C74.05 9.82001 76.05 17.15 76.15 18.93C76.25 20.71 76.15 33.69 76.15 34.78C76.15 37.75 72.66 44.39 65.17 44.39C62.66 44.39 60.52 43.78 58.79 42.81" stroke="#007aff" stroke-miterlimit="10" stroke-linecap="square"/>
<path id="Vector_12" d="M50.8601 27.16C51.4601 25.42 53.4901 25.57 53.4901 25.57" stroke="#007aff" stroke-miterlimit="10" stroke-linecap="square"/>
<path id="Vector_13" d="M53.49 31.21C53.49 31.21 52.91 31.19 52.27 30.89" stroke="#007aff" stroke-miterlimit="10" stroke-linecap="square"/>
<path id="Vector_14" d="M76.1901 26.25C76.1901 26.25 78.8801 25.66 78.8801 28.53C78.8801 31.4 76.1901 31.21 76.1901 31.21" stroke="#007aff" stroke-miterlimit="10" stroke-linecap="square"/>
<path id="Vector_15" d="M58.2101 46.79C59.7701 47.86 61.9301 48.74 64.8401 48.74C72.3501 48.74 74.4501 43.15 74.4501 43.15" stroke="#007aff" stroke-miterlimit="10" stroke-linecap="square"/>
<path id="Vector_16" d="M53.49 23.49C53.49 23.49 55.09 23.09 55.79 21.41C56.49 19.73 54.69 17.35 56.99 16.66C59.29 15.97 60.33 18.34 64.85 18.34C69.37 18.34 69.87 15.41 71.96 16.53C74.06 17.65 71.96 19.92 73.46 22.1C74.96 24.28 76.2 25.17 76.2 25.17" stroke="#007aff" stroke-miterlimit="10" stroke-linecap="square"/>
<path id="Vector_17" d="M53.49 23.98C52.22 23.83 50.93 23.76 49.62 23.76C49.04 23.76 48.47 23.77 47.9 23.8" stroke="#007aff" stroke-miterlimit="10" stroke-linecap="square"/>
<path id="Vector_18" d="M82.82 58.35C82.82 57.92 82.82 57.5 82.82 57.1C82.82 49.41 80.18 42.33 75.74 36.71" stroke="#007aff" stroke-miterlimit="10" stroke-linecap="square"/>
<path id="Vector_19" d="M16.3601 60.92C18.2701 77.39 32.3701 90.18 49.4801 90.18C54.8001 90.18 59.8201 88.94 64.2801 86.75" stroke="#007aff" stroke-miterlimit="10" stroke-linecap="square"/>
<path id="Vector_20" d="M78.49 71.18C79.6388 71.18 80.57 70.2667 80.57 69.14C80.57 68.0133 79.6388 67.1 78.49 67.1C77.3413 67.1 76.41 68.0133 76.41 69.14C76.41 70.2667 77.3413 71.18 78.49 71.18Z" stroke="#007aff" stroke-miterlimit="10" stroke-linecap="square"/>
<path id="Vector_21" d="M70.1501 75.94C71.2988 75.94 72.2301 75.0267 72.2301 73.9C72.2301 72.7734 71.2988 71.86 70.1501 71.86C69.0013 71.86 68.0701 72.7734 68.0701 73.9C68.0701 75.0267 69.0013 75.94 70.1501 75.94Z" stroke="#007aff" stroke-miterlimit="10" stroke-linecap="square"/>
<path id="Vector_22" d="M78.49 80.7C79.6388 80.7 80.57 79.7867 80.57 78.66C80.57 77.5333 79.6388 76.62 78.49 76.62C77.3413 76.62 76.41 77.5333 76.41 78.66C76.41 79.7867 77.3413 80.7 78.49 80.7Z" stroke="#007aff" stroke-miterlimit="10" stroke-linecap="square"/>
<path id="Vector_23" d="M71.9501 74.93L76.7001 77.63" stroke="#007aff" stroke-miterlimit="10" stroke-linecap="square"/>
<path id="Vector_24" d="M76.6901 70.17L71.9501 72.87" stroke="#007aff" stroke-miterlimit="10" stroke-linecap="square"/>
</g>
</g>
</svg>
