<svg width="100" height="100" viewBox="0 0 100 100" fill="none" xmlns="http://www.w3.org/2000/svg">
<path d="M49.2221 16.4311C49.6048 15.6811 50.6764 15.6811 51.0592 16.4311L60.3577 34.6517C60.6529 35.23 61.2067 35.6324 61.848 35.7344L82.0502 38.9474C82.8817 39.0796 83.2129 40.0988 82.6179 40.6946L68.1625 55.1685C67.7037 55.6279 67.4921 56.279 67.5933 56.9204L70.7804 77.1267C70.9115 77.9584 70.0446 78.5883 69.2941 78.2065L51.0616 68.9313C50.4829 68.6369 49.7983 68.6369 49.2196 68.9313L30.9871 78.2065C30.2367 78.5883 29.3697 77.9584 29.5009 77.1267L32.688 56.9204C32.7891 56.279 32.5776 55.6279 32.1188 55.1685L17.6634 40.6946C17.0684 40.0988 17.3995 39.0796 18.2311 38.9474L38.4333 35.7344C39.0745 35.6324 39.6284 35.23 39.9235 34.6517L49.2221 16.4311Z" stroke="#2563EB" stroke-linejoin="round"/>
<path d="M42.4844 49.7744L47.5305 54.875L57.7969 45.6875" stroke="#2563EB" stroke-linecap="round" stroke-linejoin="round"/>
</svg>
